<svg id="Layer_1" data-name="Layer 1" xmlns="http://www.w3.org/2000/svg" viewBox="0 0 3000 2500"><defs><style>.cls-1,.cls-6,.cls-7{fill:#416a34;}.cls-2{fill:#59916a;}.cls-2,.cls-3{stroke:#416a34;}.cls-2,.cls-3,.cls-5{stroke-miterlimit:10;stroke-width:27px;}.cls-3{fill:#7ae44c;}.cls-4{fill:#b78744;}.cls-5{fill:none;stroke:#b78744;}.cls-6{font-size:378.69px;letter-spacing:0.06em;}.cls-6,.cls-7{font-family:AqualoRegular, Aqualo;}.cls-7{font-size:168.96px;letter-spacing:0.06em;}.cls-8{letter-spacing:-0.02em;}</style></defs><path class="cls-1" d="M1586.53,776.76s-2.17-38,120.4-128c0,0,47.73-39,89-58.58,0,0,6.5,19.53-52.07,93.29,0,0-45.56,92.2-116.06,130.16Z"/><path class="cls-1" d="M1464,905.84s40.13-28.2,36.88-147.52c0,0-9.77-118.23-36.88-128,0,0-25,16.27-34.71,148.6C1429.25,778.93,1423.82,874.39,1464,905.84Z"/><path class="cls-1" d="M1501,1019.74s20.43-82.44,184.22-133.42S1815.4,844,1815.4,844s14.1,15.19-117.15,133.42C1698.25,977.43,1628.12,1027.33,1501,1019.74Z"/><path class="cls-1" d="M1379.35,1211.73s-95.45-98.71-121.49-231,15.19-228.88,15.19-228.88,32.54-2.17,99.79,211.52C1372.84,963.33,1414.06,1088.07,1379.35,1211.73Z"/><rect class="cls-1" x="1557.61" y="807.71" width="56.7" height="20.88" rx="5.51" transform="translate(861.01 -812.52) rotate(38.74)"/><rect class="cls-1" x="1423.22" y="1056.83" width="54.66" height="25.32" rx="6.68" transform="translate(313.43 -328.67) rotate(14.48)"/><rect class="cls-1" x="1406.14" y="1287.02" width="39.12" height="20.88" rx="5.51" transform="translate(93.58 -95.91) rotate(3.98)"/><path class="cls-2" d="M1456.34,1042.86s32.83-112.4,110.09-204.91"/><path class="cls-3" d="M1424.85,1278.61s-2.33-104.12,17.57-183"/><path class="cls-4" d="M1463.47,1353s-2.48-118.37,4-161.64c0,0,6.47-65.32,37.3-95.82l400.37-3.15s-9.45,117.37-164.62,223.31c0,0-125.78,81.57-277.5,45.26Z"/><path class="cls-4" d="M1393.25,1340.61l-6.87-68.14-85-111.41s-27.85-44.43-33.33-65.48l-113.89-3.15s30.34,99.16,98.48,158.66C1252.6,1251.09,1299.66,1308.78,1393.25,1340.61Z"/><path class="cls-2" d="M1424.26,1357.54s-3.76-14.73,0-42.77"/><path class="cls-5" d="M1780.88,667c89,72.68,145.79,183.27,145.79,307.13,0,218.91-177.46,396.37-396.36,396.37A397.08,397.08,0,0,1,1427.66,1357c-169.15-45.22-293.72-199.54-293.72-382.95,0-218.91,177.46-396.37,396.37-396.37a394.69,394.69,0,0,1,179.62,42.94"/><text class="cls-6" transform="translate(806.66 1737.29)">NEMBOO</text><text class="cls-7" transform="translate(1140.21 1892.81)">N<tspan class="cls-8" x="122.84" y="0">A</tspan><tspan x="211.88" y="0">TURALS</tspan></text><rect class="cls-1" x="1983.58" y="1825.51" width="87.61" height="16.31"/><rect class="cls-1" x="1018.63" y="1825.45" width="87.61" height="16.31"/></svg>